<?xml version="1.0" encoding="UTF-8"?>
<svg width="138px" height="185px" viewBox="0 0 138 185" version="1.1" xmlns="http://www.w3.org/2000/svg" xmlns:xlink="http://www.w3.org/1999/xlink">
    <!-- Generator: Sketch 51.3 (57544) - http://www.bohemiancoding.com/sketch -->
    <title>Group 7</title>
    <desc>Created with Sketch.</desc>
    <defs></defs>
    <g id="Margot" stroke="none" stroke-width="1" fill="none" fill-rule="evenodd">
        <g id="First-screen-Copy-2" transform="translate(-725.000000, -107.000000)">
            <g id="Group-7" transform="translate(726.000000, 107.000000)">
                <g id="Group-4" transform="translate(0.000000, 20.000000)">
                    <g id="Margot-2">
                        <g id="Layer_5" transform="translate(13.500000, 89.133536)" fill-rule="nonzero">
                            <path d="M47.5,75.8264036 C45.685,75.8264036 44.2,73.7257208 44.2,71.1618361 L41.9175,46.5720789 C41.9175,44.1383915 44.4175,42.1478756 47.4975,42.1478756 C50.565,42.1478756 53.0775,44.1383915 53.0775,46.5720789 L50.8,71.1543247 C50.795,73.7257208 49.31,75.8264036 47.5,75.8264036 Z" id="Shape" fill="#2816AA"></path>
                            <path d="M64.685,74.8248862 C62.955,74.8248862 61.54,72.7242033 61.54,70.1603187 L59.37,45.5705615 C59.37,43.1368741 61.7625,41.1463581 64.685,41.1463581 C67.6075,41.1463581 70,43.1368741 70,45.5705615 L67.83,70.1528073 C67.83,72.7242033 66.415,74.8248862 64.685,74.8248862 Z" id="Shape" fill="#2816AA"></path>
                            <path d="M60.1875,49.2110774 C60.1875,49.2110774 63.9375,48.7929439 66.31,47.8765554 C68.6825,46.9601669 69.9275,45.6231411 69.9275,45.6231411 L69.9975,44.023217 C69.999094,43.9931927 69.999094,43.9631047 69.9975,43.9330804 L69.9275,42.7863429 L59.37,44.7893778 L59.75,49.2110774 L60.1875,49.2110774 Z" id="Shape" fill="#24168B"></path>
                            <path d="M48.41,49.045827 C49.8948646,49.20768 51.3955262,49.1469212 52.8625,48.8655539 L52.995,47.4459029 L41.72,44.9145675 L42.0325,47.796434 C42.0325,47.796434 45.955,48.7904401 48.41,49.045827 Z" id="Shape" fill="#24168B"></path>
                        </g>
                        <g id="Layer_4" transform="translate(35.750000, 79.370258)" fill="#3C2ABF" fill-rule="nonzero" stroke="#2918A6" stroke-width="2">
                            <path d="M1.7125,0.212822458 C0.585693226,3.3940298 0.0107293742,6.74488915 0.0125,10.1203338 L0.0125,28.4455994 C0.0125,44.865478 13.425,58.2983308 29.82,58.2983308 L34.7125,58.2983308 C51.1075,58.2983308 64.52,44.865478 64.52,28.4455994 L64.52,10.1203338 C64.5217706,6.74488915 63.9468068,3.3940298 62.82,0.212822458 L1.7125,0.212822458 Z" id="Shape"></path>
                        </g>
                        <path d="M30.1451467,110.02231 C29.2726467,108.950687 29.6876467,106.955163 30.4401467,106.229063 C33.1411272,100.894803 35.6004102,97.0946365 37.8179956,94.8285626 C40.0848546,92.5121378 44.3522383,89.4385565 50.6201467,85.6078187 C52.2051467,84.2307322 54.9701467,84.8015972 56.7651467,86.8722345 C58.5601467,88.9453756 58.7301467,91.767151 57.1451467,93.1317186 C50.6704848,95.7829599 46.2480359,97.9719188 43.8778002,99.6985954 C41.0352582,101.769339 37.6385403,105.276511 33.6876467,110.22011 C32.9351467,110.948714 31.0176467,111.093934 30.1451467,110.02231 Z" id="Shape" fill="#2816AA" fill-rule="nonzero" transform="translate(43.943175, 97.826505) rotate(-92.000000) translate(-43.943175, -97.826505) "></path>
                        <g id="Layer_3">
                            <path d="M36.6375,82.329742 C37.2,82.3873293 44.8875,83.191047 50.545,83.1259484 C56.2025,83.0608498 66.6075,83.5090288 75.7625,83.1259484 C84.9175,82.742868 99.1,81.225569 99.1,81.225569 L98.265,78.4889226 L37.23,79.6782246 L36.6375,82.329742 Z" id="Shape" fill="#2918A6" fill-rule="nonzero"></path>
                            <path d="M135.075,75.0161608 C134.4075,79.0222307 109.9075,79.6907436 70.575,81.0252656 C32.325,82.3222307 0.7775,79.3552352 0.4075,73.8468892 C-2.46,31.2147951 29.9375,1.53732929 68.17,0.0701062215 C109.4775,-1.51479514 141.055,39.0716995 135.075,75.0161608 Z" id="Shape" stroke="#2918A6" stroke-width="2" fill="#4D39E0" fill-rule="nonzero"></path>
                            <path d="M101.6725,47.6171472 L37.9225,47.6171472 C32.3609274,47.6006474 27.8564748,43.0893595 27.84,37.5193475 C27.84,31.9659332 34.045,27.4215478 39.59,27.4215478 L99.5,27.4215478 C105.045,27.4215478 111.7625,31.9659332 111.7625,37.5193475 C111.746006,43.0922819 107.237001,47.604772 101.6725,47.6171472 Z" id="Shape" fill="#FFFFFF" fill-rule="nonzero"></path>
                            <path d="M48,37.5569044 C49.7916667,36.3884674 51.5833333,35.8042489 53.375,35.8042489 C55.1666667,35.8042489 56.9583333,36.3884674 58.75,37.5569044" id="Path-3" stroke="#000000" stroke-width="2.25" stroke-linecap="round" stroke-linejoin="round"></path>
                            <path d="M80.5,37.5569044 C82.2916667,36.3884674 84.0833333,35.8042489 85.875,35.8042489 C87.6666667,35.8042489 89.4583333,36.3884674 91.25,37.5569044" id="Path-3-Copy" stroke="#000000" stroke-width="2.25" stroke-linecap="round" stroke-linejoin="round"></path>
                        </g>
                        <path d="M60.75,57.8376328 C63,61.676783 66.2083333,63.5963581 70.375,63.5963581 C74.5416667,63.5963581 77.75,61.676783 80,57.8376328" id="Path-4" stroke="#FFFFFF" stroke-width="2" stroke-linecap="round" stroke-linejoin="round"></path>
                        <g id="Layer_6" transform="translate(59.750000, 94.142640)" fill-rule="nonzero">
                            <path d="M5.805,0.963960546 L0.1225,13.4153263 C-0.0585681374,13.8126539 -0.0256334037,14.2749039 0.209931505,14.6424568 C0.445496414,15.0100097 0.851407663,15.2324928 1.2875,15.2330804 L12.6525,15.2330804 C13.0885923,15.2324928 13.4945036,15.0100097 13.7300685,14.6424568 C13.9656334,14.2749039 13.9985681,13.8126539 13.8175,13.4153263 L8.135,0.963960546 C7.92563297,0.508435291 7.47070899,0.216594198 6.97,0.216594198 C6.46929101,0.216594198 6.01436703,0.508435291 5.805,0.963960546 Z" id="Shape" fill="#F6F6F6"></path>
                            <path d="M11.925,0.963960546 L6.25,13.4153263 C6.06893186,13.8126539 6.1018666,14.2749039 6.33743151,14.6424568 C6.57299641,15.0100097 6.97890766,15.2324928 7.415,15.2330804 L18.775,15.2330804 C19.2110923,15.2324928 19.6170036,15.0100097 19.8525685,14.6424568 C20.0881334,14.2749039 20.1210681,13.8126539 19.94,13.4153263 L14.25,0.963960546 C14.0394345,0.511366644 13.5860567,0.222000467 13.0875,0.222000467 C12.5889433,0.222000467 12.1355655,0.511366644 11.925,0.963960546 Z" id="Shape" fill="#F6F6F6"></path>
                            <polygon id="Shape" fill="#F39200" points="14.6475 15.2355842 10.03 5.11775417 5.4125 15.2355842"></polygon>
                        </g>
                    </g>
                </g>
                <g id="medal-2-copy-2" transform="translate(52.000000, 101.000000)" fill="#8272FE" stroke="#2918A6" stroke-width="1.32">
                    <path d="M1.57104966,0.988125 L11.0363646,10.645245 L19.9471459,10.645245 L10.4818309,0.988125 L1.57104966,0.988125 Z" id="Rectangle-35"></path>
                    <path d="M17.29583,0.66 L27.7292375,10.1556002 L31.6751401,6.06587147 L25.9498678,0.66 L17.29583,0.66 Z" id="Rectangle-35-Copy" transform="translate(24.101717, 5.537598) scale(-1, 1) translate(-24.101717, -5.537598) "></path>
                </g>
                <g id="Group-10-Copy" transform="translate(55.000000, 110.000000)" fill="#FFCD39" fill-rule="nonzero">
                    <ellipse id="Oval-23" stroke="#2918A6" stroke-width="2" cx="14.6479592" cy="14.2734375" rx="14.6479592" ry="14.2734375"></ellipse>
                    <ellipse id="Oval-23-Copy" stroke="#000000" stroke-width="0.66" cx="14.6479592" cy="14.2734375" rx="12.2908163" ry="11.9765625"></ellipse>
                </g>
                <path d="M131.512231,35.7939494 L128.232601,40.7514321 L131.796649,45.2800271 L134.800388,40.6200068 L131.512231,35.7939494 Z" id="Path-10-Copy-18" stroke="#141C3A" stroke-width="2" fill="#FFC004" fill-rule="nonzero"></path>
                <path d="M4.51223083,31.7939494 L1.23260122,36.7514321 L4.79664885,41.2800271 L7.80038805,36.6200068 L4.51223083,31.7939494 Z" id="Path-10-Copy-19" stroke="#141C3A" stroke-width="2" fill="#FFC004" fill-rule="nonzero"></path>
                <path d="M30.5122308,11.7939494 L27.2326012,16.7514321 L30.7966489,21.2800271 L33.8003881,16.6200068 L30.5122308,11.7939494 Z" id="Path-10-Copy-20" stroke="#141C3A" stroke-width="2" fill="#FFC004" fill-rule="nonzero"></path>
                <path d="M68.5122308,1.79394938 L65.2326012,6.75143209 L68.7966489,11.2800271 L71.8003881,6.62000676 L68.5122308,1.79394938 Z" id="Path-10-Copy-21" stroke="#141C3A" stroke-width="2" fill="#FFC004" fill-rule="nonzero"></path>
                <path d="M106.512231,11.7939494 L103.232601,16.7514321 L106.796649,21.2800271 L109.800388,16.6200068 L106.512231,11.7939494 Z" id="Path-10-Copy-22" stroke="#141C3A" stroke-width="2" fill="#FFC004" fill-rule="nonzero"></path>
                <path d="M69.5,127.481555 L65.0013533,130.691856 L66.6643726,125.421351 L62.2210367,122.134921 L67.7474859,122.087871 L69.5,116.846445 L71.2525141,122.087871 L76.7789633,122.134921 L72.3356274,125.421351 L73.9986467,130.691856 L69.5,127.481555 Z" id="Star-4" stroke="#2918A6" stroke-width="2" fill="#FFFFFF" fill-rule="nonzero"></path>
                <path d="M104.956106,127.95353 C105.828606,126.881906 105.413606,124.886382 104.661106,124.160282 C100.241719,117.770268 96.7933204,113.309314 94.3159102,110.77742 C92.3094315,108.726815 89.0319968,106.314021 84.4836063,103.539038 C82.8986063,102.161952 80.1336063,102.732816 78.3386063,104.803454 C76.5436063,106.876595 76.3736063,109.69837 77.9586063,111.062938 C82.7768502,113.367312 86.4890278,115.468298 89.0951389,117.365896 C91.70125,119.263493 95.564972,122.817548 100.686305,128.028059 C101.441305,128.769182 104.073606,129.025153 104.956106,127.95353 Z" id="Shape" fill="#2816AA" fill-rule="nonzero" transform="translate(91.159328, 115.730027) rotate(103.000000) translate(-91.159328, -115.730027) "></path>
            </g>
        </g>
    </g>
</svg>